/* XPM */
static char *collectible[] = {
/* columns rows colors chars-per-pixel */
"64 64 191 2 ",
"   c None",
".  c #020B0A",
"X  c #0B1312",
"o  c #0F1A19",
"O  c #111616",
"+  c #101817",
"@  c #161B1C",
"#  c #181F1F",
"$  c #211A1E",
"%  c #19201F",
"&  c #1F1F21",
"*  c #261F23",
"=  c #1A2120",
"-  c #2E272B",
";  c #352129",
":  c #3F242D",
">  c #2D3433",
",  c #363B3D",
"<  c #393D3E",
"1  c #383238",
"2  c #452833",
"3  c #5E2D3C",
"4  c #532937",
"5  c #5A313F",
"6  c #44353E",
"7  c #602E3D",
"8  c #5A3845",
"9  c #6E3849",
"0  c #7B3B4F",
"q  c #7D3E51",
"w  c #3A4040",
"e  c #5E4953",
"r  c #5A4A54",
"t  c #525557",
"y  c #535758",
"u  c #55595B",
"i  c #484145",
"p  c #614E5A",
"a  c #67505E",
"s  c #744959",
"d  c #5C5F61",
"f  c #775667",
"g  c #5E6063",
"h  c #616466",
"j  c #646669",
"k  c #65686A",
"l  c #71656E",
"z  c #747679",
"x  c #76787A",
"c  c #78767A",
"v  c #746E75",
"b  c #8E3E55",
"n  c #903F57",
"m  c #92435D",
"M  c #86495E",
"N  c #954661",
"B  c #964D65",
"V  c #984D66",
"C  c #974A69",
"Z  c #994D6C",
"A  c #93586D",
"S  c #9C5A6E",
"D  c #985269",
"F  c #8D5C71",
"G  c #9C5377",
"H  c #9D5876",
"J  c #8B5666",
"K  c #A35B77",
"L  c #A35B7F",
"P  c #8C677A",
"I  c #916979",
"U  c #AB647F",
"Y  c #A15A84",
"T  c #A45E8A",
"R  c #8F7E8B",
"E  c #997789",
"W  c #AC6582",
"Q  c #A46F87",
"!  c #A6618C",
"~  c #A8658E",
"^  c #AD6A89",
"/  c #B26F8F",
"(  c #B1738D",
")  c #B57A8E",
"_  c #A96690",
"`  c #AC6A93",
"'  c #AF6F98",
"]  c #B06F97",
"[  c #AC7D96",
"{  c #B17196",
"}  c #B67E94",
"|  c #B3749B",
" . c #B5799F",
".. c #BC7D9A",
"X. c #AA7D8C",
"o. c #B77BA0",
"O. c #BA7EA3",
"+. c #8C8B8F",
"@. c #90868F",
"#. c #8E8D91",
"$. c #9A9A9D",
"%. c #978F96",
"&. c #B88193",
"*. c #B98297",
"=. c #A0979F",
"-. c #9E9CA0",
";. c #AC8EA3",
":. c #BB82A6",
">. c #BE86A9",
",. c #BD8BAA",
"<. c #B48AA3",
"1. c #A19EA2",
"2. c #AF9CAA",
"3. c #BC95AF",
"4. c #BF98B2",
"5. c #A6A4A8",
"6. c #B1ACB2",
"7. c #B9A9B4",
"8. c #B4A5AD",
"9. c #C187AB",
"0. c #C38BAD",
"q. c #C38DA4",
"w. c #C191AF",
"e. c #C892AF",
"r. c #C899AD",
"t. c #C58EB0",
"y. c #C493B2",
"u. c #C995B5",
"i. c #CA99B6",
"p. c #CD9BBA",
"a. c #C598B5",
"s. c #D09FBD",
"d. c #CEA2BD",
"f. c #C7AEBF",
"g. c #C9A9B7",
"h. c #D0A2BE",
"j. c #D2AEBC",
"k. c #C2B5BF",
"l. c #D2A5C1",
"z. c #D6ACC6",
"x. c #D8AFC9",
"c. c #D8AFC7",
"v. c #C4BFC4",
"b. c #C9BEC6",
"n. c #CBB5C4",
"m. c #D5B6CA",
"M. c #DAB4CC",
"N. c #D6B9CC",
"B. c #DAB9CE",
"V. c #D3B1C7",
"C. c #DCBDD1",
"Z. c #E0BED4",
"A. c #CBC5CB",
"S. c #CEC9CE",
"D. c #C6C2C7",
"F. c #D5C1CE",
"G. c #CFCBD0",
"H. c #D6C6D1",
"J. c #DEC2D4",
"K. c #DCCAD6",
"L. c #DECDD9",
"P. c #D7C9D4",
"I. c #DCD2DB",
"U. c #E1C1D6",
"Y. c #E1CBD6",
"T. c #E2C6D8",
"R. c #E4CBDB",
"E. c #E4D1DE",
"W. c #E8D0DF",
"Q. c #E8CEE0",
"!. c #E6D3E0",
"~. c #E9D4E2",
"^. c #E5DBE3",
"/. c #EBDBE6",
"(. c #EDDEE9",
"). c #F1DFEC",
"_. c #ECE2EA",
"`. c #ECE5EB",
"'. c #F0E6EE",
"]. c #F1E8EF",
"[. c #F4E6F0",
"{. c #F3EAF2",
"}. c #F4EAF3",
"|. c #F6EEF5",
" X c #F5EDF4",
".X c #F3EBF2",
"XX c #F8EDF6",
"oX c #F7F0F6",
"OX c #F8F0F7",
"+X c #F9F2F9",
"@X c #F9F3F9",
/* pixels */
"                        X X X X X X X X X X X X X X X X X X X X X X X X X X X X X X X X X X X X X X X X                         ",
"                        % = = = = = = = = = = = = = = = = = = = = = = = = = = = = = = = = = = = = = = %                         ",
"                        , , , , , , , , , , , , , , , , , , , , , , , , , , , , , , , , , , , , , , , ,                         ",
"                        u g h k k j j j j j j j j j j j j j j j j j j j j j j j j j j j j j j j j h d u                         ",
"                . + > u x #.$.5.5.1.1.1.-.1.1.1.1.1.1.1.1.1.1.-.-.-.-.-.-.-.-.-.-.-.-.-.-.-.-.1.1.$.+.x y > + .                 ",
"                + = < g +.6.v.A.A.A.A.D.A.D.A.A.A.A.A.A.A.A.A.A.A.A.A.A.A.A.A.A.A.A.A.A.A.S.S.S.S.v.6.#.h < = +                 ",
"                > < t v =.k.P.E.E.L.L.K.K.K.K.K.K.L.L.E.E.!.^.^./._._._._._._._.`.`.`.`.`.`.`._._.E.b.1.c t < >                 ",
"                t g v @.2.f.N.J.J.C.C.N.N.N.N.N.N.C.J.T.R.~./.).[.}. X X X X X XOX+X+X+X+X+XXXXX[.^.H.7.%.c g y                 ",
"        . + > y z +.=.2.4.4.y.a.a.a.a.a.a.a.y.y.y.y.i.h.V.C.R.~.).[. X X X X X X XoX+X+X+XOX.X'.~.R.C.n.7.1.#.z u , @ X         ",
"        + = w h #.6.n.f.4.:. .| |  . . . .| | | |  .:.0.p.c.C.R./.'.{. X X X.X.X{.{..X.X{.'.(.~.U.B.M.N.F.b.6.+.d < = O         ",
"        > w u x 5.A.K.N.y. ._ ! ! ~ ! ! ~ ! ~ _ _ '  .>.i.z.C.R.^.`.{. X X.X{.'.'._.(./.~.!.T.C.c.l.z.N.R.L.b.1.l i - $         ",
"        y h x $.v.I.!.C.y.| ! Y Y Y Y Y Y T T ! _ { O.t.d.M.U.W.^.`.{. X X{.'._./.~.R.T.C.M.c.d.y.y.p.M.W.~.H.8.P e 2 ;         ",
"X # , u z #.5.v.I.^.!.N.y.| ! Y Y Y Y Y Y T ! _ | :.y.d.M.U.~./._.'.{. X X{.'./.W.U.B.z.d.i.0.:. .o.9.h.T.!.K.g.E s 8 2 ; * @ o ",
"X = , d +.6.S.^._._.!.N.y.| ! Y Y Y T T T ! _ { :.y.d.M.T.~.(.'.'.{.{. X{.'.(.~.U.M.l.u.9.O.| ' _ ] :.p.J.W.K.g.X.J 9 4 ; * @ o ",
"X = , h $.D.^. X X'.!.N.y.| ! Y Y T T ! ~ ` { O.y.h.M.U.~.(.'.{.{.{.{.{.'._.~.T.M.h.y.:. .` _ ! ~ ' :.i.J.W.Y.j.&.A 0 3 : * @ o ",
"X = , j 1.S.].@X@X{.!.m.y.| ! Y Y T ! _ ' | :.t.h.M.U.~.(.'.{. X X X{.`.(.~.T.M.h.y.:.| _ ! T ! _  .9.d.J.W.Y.j.&.S q 3 : * @ o ",
"X = , j 1.S.`.@X@X{.!.m.y.| ! Y Y T ~ '  .:.y.h.M.T.~.(.`.{. X X X{.'.(.~.U.M.h.t.O.{ _ ! T ! _ | :.i.V.R.~.Y.j.&.S q 3 : * @ o ",
"X = , j -.S.`.@X+X{.!.m.y.| ! Y T ! _ | :.y.h.M.T.~._.'.{.{.{. X{.'._.~.U.M.h.y.O.{ _ ! ! ! _ { O.y.l.C.~.^.Y.j.&.S q 3 : * @ o ",
"X = , j -.S.`.@X+X{.!.m.w.| ~ T ! _ { :.y.h.M.T.~._.'.{. X{.{.{.'._.~.T.M.h.y.:.{ _ ! ! ~ ` { O.0.p.c.U.~.^.R.j.&.S q 3 : * @ o ",
"X = , j -.A.`.@X+X{.!.m.w.| ~ ! _ { :.y.d.M.T.~.(.'.{. X X X{.`.(.~.T.M.h.y.:.| _ ! ! _ '  .O.0.u.h.M.T.~.^.R.j.&.S q 3 : * @ o ",
"X = , j -.A.`.@X+X[.!.m.3.| _ ~ { :.y.h.M.T.~.(.`.{. X X X{.'.(.~.U.M.h.t.O.{ _ ! ! _ '  .:.0.u.p.l.M.T.~.^.R.j.&.S q 3 : * @ o ",
"X = , j -.A.`.+X+X{.!.N.y.o.{ { :.y.h.M.T.~._.'.{.{.{. X{.'._.~.U.M.h.y.O.{ _ ! ! ~ `  .:.t.u.p.p.l.x.U.~.^.R.j.&.S q 3 : * @ o ",
"X = , j -.A.`.+X+X{.~.C.d.,.:.>.u.l.M.U.~._.'.{.{.{.{.{.'._.~.T.M.h.y.:.{ _ ! ! _ ` { :.0.i.p.p.p.p.l.C.~.^.Y.j.&.S q 3 : * @ o ",
"X = , j -.A.`.+X+X{./.T.V.d.i.d.z.B.U.!.(.'.{. X X X{.`.(.~.T.M.l.y.:.| _ ! ! _ '  .O.0.u.p.s.p.u.u.p.V.R.~.Y.j.&.S q 3 : * @ o ",
"X = , j -.A._. X X{._.!.T.J.C.C.T.R.~./.`.]. X X X{.'.(.W.U.M.h.t.O.{ _ ! ! ~ '  .:.0.u.s.h.p.u.9.>.0.d.J.W.Y.j.&.S q 3 : * @ o ",
"X = , j -.A._. X X{.'._.^.~.~.~.^.(._.`.'.{.{. X{.'._.~.U.M.h.y.O.{ _ ! ! ~ `  .:.y.p.s.h.s.u.0.O.o.:.i.C.R.Y.j.&.S q 3 : * @ o ",
"X = , j -.A._. X X.X{.'.'.'.'.'.].{.{.{.{.{.{.{.'._.~.T.M.h.y.:.{ _ ! ! _ ` | O.0.p.h.h.s.i.0.:.{ ' o.y.N.R.Y.j.&.S q 3 : * @ o ",
"X = , j -.A._. X X.X{.{. X X X.X X X X X X{.{.`.(.~.T.M.h.y.:.| _ ! ! _ '  .O.0.u.s.h.s.u.0.:.| _ _ | y.N.R.Y.j.&.S q 3 : * @ o ",
"X = , j -.A._. X X.X{.{. X X X X{.{. X X X{.'.(.~.U.M.l.y.O.{ _ ! ! ~ '  .:.0.u.s.h.s.i.0.O.{ _ T ! | y.N.R.Y.j.&.S q 3 : * @ o ",
"X = , j -.A._. X X X{.{.{. X X{.{.{.{.{.{.'.(.~.U.M.h.y.O.{ _ ! ! ~ `  .:.t.i.p.h.s.i.0.O.{ _ ! T _  .a.C.R.Y.j.&.S q 3 : * @ o ",
"X = , j -.A._. X X X{.{.{.{.{.{.{.{.{.'.'.(.~.T.M.d.y.:.{ _ ! ! ! ` { O.0.u.p.h.p.u.0.:.{ _ ! ! _ | ,.d.J.W.Y.j.&.S q 3 : * @ o ",
"X = , j -.A._. X X X{.].'.'.{.{.{.'.'._./.~.U.M.d.y.:.| _ ! T ! ` { O.0.u.p.p.p.u.0.:.| _ ! ! _  .,.d.m.R.~.Y.j.&.S q 3 : * @ o ",
"X = , j -.A._. X X.X{.{.{.{.{.{.{.'.`./.R.U.M.d.t.O.{ _ ! T ! _ | :.0.u.p.p.p.u.0.O.{ _ T T _  .y.l.C.R.(./.R.j.&.S q 3 : * @ o ",
"X = , j -.A._. X X X{.{.{.{.{.{.{.'._.~.R.B.z.i.>. .' _ _ _ '  .>.y.p.h.l.l.p.u.>.o.' _ ! _ | ,.l.C.!.(.'.(.Y.j.} S q 3 : * @ o ",
"X = , j -.A._. X X.X{.{.'.{.[.{.{.{.`.~.R.C.z.p.0.:. .| |  .O.9.i.l.c.M.M.c.l.p.0.:. .| |  .,.i.C.!.`.{.[./.J.g.) S q 3 : * @ o ",
"X = , j -.A._. X X.X{.{.'.'.'.{. X{.'./.R.U.B.z.p.a.y.w.y.y.i.d.c.N.J.U.U.C.N.c.d.i.y.w.w.a.d.m.R.(.{.{.'.W.N.r.( D q 3 : * @ o ",
"X = , j -.A._. X X.X{.{.'.{.{.{. X X{.`./.~.R.T.C.N.N.N.N.N.N.J.T.R.~.~.~.!.R.T.J.N.N.m.m.N.J.R./.'.'.`.~.U.j.q.^ D 0 3 : * @ o ",
"X = , j -.A._. X X.X{.{.'.].{.{.{.{.'.'._.(.^.~.!.!.W.W.!.!.!.!.~.^.(.(.(./.^.~.~.W.W.W.E.W.!.^.`.'.(.~.R.B.p.*.W B 0 3 : * @ o ",
"X = , j -.A._. X X X{.'.{.{.].'.'.`._.(.(.(.(.(.(.^.^.^./././.(.(.(.(.(.(.(.(.(.(./.^.^.^./.(.(.(./.~.R.U.c.u...U B 0 3 : * @ o ",
"X = , j -.A._. X X.X{.{.{.{.'.`./.~.~.~.~.~.~.~.~.~.~.~.~.~.~.~.~.~.~.~.~.~.~.~.~.~.~.~.~.~.~.~.~.R.T.U.B.z.u...U B 0 3 : * @ o ",
"X = , j -.A._. X X.X X X X{.'./.R.T.U.Z.U.U.U.U.U.U.U.U.U.U.U.U.U.U.Z.Z.Z.U.U.U.U.U.U.U.U.U.U.U.U.Z.C.B.M.h.e...U B 0 3 : * @ o ",
"X = , j -.A._. X X.X X X{.'.(.~.U.B.x.c.c.c.c.c.c.c.c.c.c.c.c.c.c.c.c.c.c.c.c.c.c.c.c.c.c.c.c.x.x.M.M.M.c.h.e...U B 0 3 : * @ o ",
"X = , j -.A._. X X.X{.{.'.(.~.T.M.l.p.p.p.p.p.p.p.p.p.p.p.p.p.p.p.p.p.p.p.p.p.p.p.p.p.p.p.p.p.s.l.l.l.z.z.h.e...U B 0 3 : * @ o ",
"X = , j -.A._. X X.X].`./.~.T.M.h.u.0.9.9.9.9.9.9.9.9.9.9.9.9.9.9.9.9.9.9.9.9.9.9.9.9.9.9.9.0.u.p.s.l.l.z.h.e...U B 0 3 : * @ o ",
"X = , j -.A.`.OX X{.'./.W.U.M.h.t.:. .{ { {  . . . . . . . . . . . . . . . . . . . .| { {  .O.9.u.p.l.z.z.h.e...U B 0 3 : * @ o ",
"X = , j -.A.`.+X X{.`.~.T.B.l.u.:.{ ` ~ ~ _ ` ` ` ` ` ` ` ` ` ` ` ` ` ` ` ` ` ` ` ` _ ~ ~ ` { O.0.u.h.l.z.h.e...U B 0 3 : * @ o ",
"X = , j -.A.`.+X+X.X_.~.U.x.p.0. .` ! T T T ! ! ! ! ! ! ! ! ! ! ! ! ! ! ! ! ! ! ! ! T T T ! `  .:.t.i.h.l.h.e...U B 0 3 : * @ o ",
"X = , j -.A.`.+X+X}.`.~.U.c.p.9.{ ~ T Y Y T T T T T T T T T T T T T T T T T T T T T T T Y T ~ '  .:.0.u.p.p.e...U B 0 3 : * @ o ",
"X = , j -.A.`.+X+X X`.~.U.c.p.9.{ ~ T Y T T T T T T T T T T T T T T T T T T T T T T T T T T ! _ '  .O.0.u.i.0...W B 0 3 : * @ o ",
"X = , j -.A.`.+XXX{.(.R.C.z.u.>.{ _ T T T T T T T T T T T T T T T T T T T T T T T T T T T T ! ! ~ ` | :.y.u.0...W B 0 3 : * @ o ",
"X = , j -.S.`.XX.X'.~.T.M.h.y.:.{ _ T T T T ! ! ! ! ! ! ! ! ! ! ! ! ! ! ! ! ! ! ! ! ! ! ! ! T T T ! ' O.t.u.0...W B 0 3 : * @ o ",
"X = , j 1.S._.XX'.~.T.M.l.u.>. .' ~ ! T T T ! ! ! ! ! ! ! ! ! ! ! ! ! ! ! ! ! ! ! ! ! ! ! ! T T Y T ` o.t.u.0...W B 0 3 : * @ o ",
"X = , j 1.S._.[.~.T.M.d.y.:. .' _ ! ! ! ! ! ! ! ! ! ! ! ! ! ! ! ! ! ! ! ! ! ! ! ! ! ! ! ! ! T T Y T ` o.t.u.e...W V q 7 : * @ o ",
"X = , h $.v.E.~.T.B.l.u.:.| _ ~ ! ! ! ! ! ! ! ! ! ! ! ! ! ! ! ! ! ! ! ! ! ! ! ! ! ! ! ! ! ! T T T ! ' o.t.u.0...U B 0 3 : * @ o ",
"X = , d +.6.b.F.N.z.p.0.o.' ! T T T ! ! ! ! ! ! ! ! ! ! ! ! ! ! ! ! ! ! ! ! ! ! ! ! ! ! ! ! ! T T ! ' o.t.u.0.} K M 9 4 : * @ o ",
"X % , u x #.1.8.g.i.u.0. .` T T T T ! ! ! ! ! ! ! ! ! ! ! ! ! ! ! ! ! ! ! ! ! ! ! ! ! ! ! ! ! ! T ! ' o.t.u.0.[ F s 5 2 ; * @ o ",
"        u g v R ;.y.u.0.o.' ! T T ! ! ! ! ! ! ! ! ! ! ! ! ! ! ! ! ! ! ! ! ! ! ! ! ! ! ! ! ! ! ! T ! ' O.t.a.,.E f 8 2 ;         ",
"        > < r l E <.w.0. .` ! T T T T T T T T T T T T T T T T T T T T T T T T T T T T T T T T T Y ! `  .0.0.<.E a 6 - $         ",
"        + = 1 p E &.:.O.{ ~ Y Y Y Y Y Y Y Y Y Y Y Y Y Y Y Y Y Y Y Y Y Y Y Y Y Y Y Y Y Y Y Y Y Y Y Y ~ { O.:.[ P e 1 & O         ",
"        . O - e P Q ( / W L G G G G G G G G G G G G G G G G G G G G G G G G G G G G G G G G G G G G L W / ( Q P e 1 @ X         ",
"                A H K K G Z C C C C C C C C C C C C C C C C C C C C C C C C C C C C C C C C C C C C Z G K K S A                 ",
"                B B B B N m m m m m m m m m m m m m m m m m m m m m m m m m m m m m m m m m m m m m N N V B B B                 ",
"                m m m m m b b b b b b b b b b b b b b b b b b b b b b b b b b b b b b b b b b b b b n m m m m m                 ",
"                b b b b b b b b b b b b b b b b b b b b b b b b b b b b b b b b b b b b b b b b b b b b b b b b                 "
};
