/* XPM */
static char *enemy_down4[] = {
/* columns rows colors chars-per-pixel */
"64 64 2 1 ",
"  c black",
". c white",
/* pixels */
"                                                                ",
"                                                                ",
"        .                                                       ",
"                                                      .         ",
"                                                                ",
"                                                                ",
"                                    .                           ",
"                                                                ",
"   .                                                            ",
"                                                                ",
"         ...............................................        ",
"        .................................................       ",
"        .................................................       ",
"        .................................................       ",
"         ...............................................        ",
"         ...............................................        ",
"          .............................................         ",
"          .............................................         ",
"           ...........................................          ",
"           ...........................................          ",
"            .........................................           ",
"             .......................................            ",
"             .......................................            ",
"              .....................................             ",
"              .....................................             ",
"               ...................................              ",
"               ...................................              ",
"                .................................               ",
"                .................................               ",
"                 ...............................                ",
"                  ..............................                ",
"                  .............................                 ",
"                   ...........................                  ",
"                   ...........................                  ",
"                    .........................                  .",
"                    .........................                   ",
"                     ......           ......                    ",
"        .            ......           ......                    ",
"                      ......         ......                     ",
"                      ......         ......                     ",
"                       ......       ......                      ",
"                        .....       .....                       ",
"                        ......     ......                       ",
"                         .....     .....                        ",
"                         ......   ......                        ",
"                          ......  .....        ..               ",
"                          ...... ......        .                ",
"                           ...........                          ",
"                           ...........                          ",
"                     .      .........                           ",
"                             ........                           ",
"                             .......                            ",
"     .                        .....                             ",
"                              .....                             ",
"                               ...                              ",
"                                                                ",
"                                                         .      ",
"                                                                ",
"                                                                ",
"                                                                ",
"                                          .                     ",
"                                                                ",
"                                                                ",
"                                                                "
};
