/* XPM */
static char *exit[] = {
/* columns rows colors chars-per-pixel */
"64 64 190 2 ",
"   c None",
".  c #090F19",
"X  c #0E1419",
"o  c #11161A",
"O  c #151C1B",
"+  c #181F1C",
"@  c #17211C",
"#  c #1A221C",
"$  c #1D2A1E",
"%  c #20271E",
"&  c #222D1E",
"*  c #24321F",
"=  c #2A331F",
"-  c #162721",
";  c #172922",
":  c #1A2C22",
">  c #1A3628",
",  c #1B3B2A",
"<  c #1F3424",
"1  c #222E20",
"2  c #253220",
"3  c #2B3420",
"4  c #243B24",
"5  c #223E29",
"6  c #323B21",
"7  c #1D442E",
"8  c #1E4C33",
"9  c #1F5135",
"0  c #2D4123",
"q  c #21432C",
"w  c #2D4428",
"e  c #254A2E",
"r  c #294B2B",
"t  c #324523",
"y  c #384623",
"u  c #354A24",
"i  c #3C4B24",
"p  c #384928",
"a  c #3C5526",
"s  c #3F5826",
"d  c #385529",
"f  c #3A5A2A",
"g  c #224F32",
"h  c #215335",
"j  c #235D3A",
"k  c #285C38",
"l  c #2A5A35",
"z  c #3B5D31",
"x  c #3A602E",
"c  c #2E6437",
"v  c #24623C",
"b  c #2B643B",
"n  c #2B6A3E",
"m  c #326E3D",
"M  c #396937",
"N  c #3D753B",
"B  c #3E7C3D",
"V  c #424C24",
"C  c #445126",
"Z  c #4B5526",
"A  c #435C27",
"S  c #495C27",
"D  c #485E2D",
"F  c #465B2B",
"G  c #525F28",
"H  c #466329",
"J  c #4A6529",
"K  c #4E6E2A",
"L  c #556329",
"P  c #5A6529",
"I  c #526F2B",
"U  c #4F702B",
"Y  c #54712B",
"T  c #5D762C",
"R  c #57792C",
"E  c #5B7B2D",
"W  c #536D31",
"Q  c #42773D",
"!  c #457E3C",
"~  c #4F7C3A",
"^  c #547B34",
"/  c #537636",
"(  c #626D2B",
")  c #65742C",
"_  c #68742C",
"`  c #647B2D",
"'  c #6E7E2E",
"]  c #717D2E",
"[  c #677D32",
"{  c #266C42",
"}  c #277044",
"|  c #287446",
" . c #287748",
".. c #3A7740",
"X. c #357841",
"o. c #3B7B41",
"O. c #347340",
"+. c #407F41",
"@. c #46813F",
"#. c #4A853D",
"$. c #4C8B3E",
"%. c #5A8D37",
"&. c #51863F",
"*. c #538B3C",
"=. c #5A8E3E",
"-. c #538434",
";. c #5D923C",
":. c #55913B",
">. c #63812E",
",. c #63892F",
"<. c #6A882F",
"1. c #75812E",
"2. c #668D30",
"3. c #6B8C30",
"4. c #6A8C39",
"5. c #698133",
"6. c #7A8730",
"7. c #728D30",
"8. c #798830",
"9. c #649333",
"0. c #6D9031",
"q. c #6A9D36",
"w. c #64973C",
"e. c #6A943C",
"r. c #649939",
"t. c #6B9A3C",
"y. c #749432",
"u. c #759F34",
"i. c #7C9D33",
"p. c #729F3A",
"a. c #799D3C",
"s. c #6FA035",
"d. c #74A335",
"f. c #7CA535",
"g. c #7EA936",
"h. c #7CA33B",
"j. c #76A13A",
"k. c #478640",
"l. c #4B8640",
"z. c #538A40",
"x. c #5F9240",
"c. c #808D31",
"v. c #839433",
"b. c #819B34",
"n. c #8D9C34",
"m. c #839C38",
"M. c #919F34",
"N. c #81A234",
"B. c #8DA234",
"V. c #86AC37",
"C. c #8BAC36",
"Z. c #85A63C",
"A. c #84A939",
"S. c #8CAC3B",
"D. c #94A235",
"F. c #92AB36",
"G. c #9CAB37",
"H. c #94AC3A",
"J. c #9FAE38",
"K. c #8EB338",
"L. c #93B137",
"P. c #9AB437",
"I. c #95B239",
"U. c #9BB539",
"Y. c #9CB839",
"T. c #A0AF38",
"R. c #A1B237",
"E. c #A1B639",
"W. c #A5B539",
"Q. c #A2B439",
"!. c #A9B739",
"~. c #A3B83A",
"^. c #A3B939",
"/. c #A4B939",
"(. c #AAB839",
"). c #ABBB3A",
"_. c #AABB3A",
"`. c #AABD3A",
"'. c #ADBC3A",
"]. c #AFBD3A",
"[. c #AEBD3A",
"{. c #AFBE3B",
"}. c #AEBD3A",
"|. c #B0BE3B",
" X c #B0BE3A",
".X c #B3C03B",
"XX c #B1C03B",
"oX c #B4C23B",
"OX c #B6C53C",
"+X c #B3C13B",
/* pixels */
"                                                                                                                                ",
"                                                                                                                                ",
"                                                                                                                                ",
"                                                                                                                                ",
"                                                                                                                                ",
"                                                                                                                                ",
"                                                                                                                                ",
"                                                                                                                                ",
"                                                                                                                                ",
"                                                                                                                                ",
"                                                                                                                                ",
"                                                                                                                                ",
"                                                                        X X X X X X X X X X X X X X X X                         ",
"                                                                        O O O O O + + + + + + + + + + +                         ",
"                                                                        & & & * = = 3 3 3 3 3 3 3 3 3 3                         ",
"                                                                        0 t i a C Z Z Z Z Z Z Z Z Z V V                         ",
"                                                                . o $ 0 a H I T ` ' ] 1.] 1.1.1.1.] ) L i & O .                 ",
"                                                                o @ * u J E 3.y.b.n.D.D.D.D.D.D.D.n.c._ Z 3 # O                 ",
"                                                                $ * t A E 0.f.C.I.U.Q.(.!.!.(.(.(.R.D.6.P V 3 &                 ",
"                                                                t u A Y 3.N.C.Y._.)..XoXoXoXoXoXoX).J.n.] P Z V                 ",
"                        X X X X X X X X X X X X X X X X X O & t s K E 3.b.C.P.~.).'..X.X|.|..X.X.X'.Q.G.n.6._ L V 3 + X         ",
"                        + + + + + + + + + + + + + + + + O @ 2 t H R 3.i.C.P.~.(.'.|.|.|.'.'.|.|.|.'.).Q.T.D.c.) V 3 + X         ",
"                        3 3 3 3 3 3 3 3 3 3 3 3 3 3 2 1 : : 4 u H R 3.i.F.E.(.'.|.|.|.'.'.'.|.|.|.|.|.|.'.Q.n.] Z 3 + X         ",
"                        V V Z Z Z Z Z Z Z Z Z Z Z Z C p w 5 q r f K ` y.B.R.'..X.X|.|.'.'.'.|.|.'.|..XOXOX'.D.1.Z 3 + X         ",
"                . O & i L ) ] 1.1.1.] ] ] ] 1.1.1.] ` W x l g e r d J _ v.G.).oX.X|.|.'.|.|.|.|.|.|..XoXOX'.D.1.Z 3 + X         ",
"                O # 3 Z _ c.n.D.D.D.D.D.D.D.D.D.D.n.b.4.~ M k g q 0 i L 8.D.Q.'.'.'.).(.).'.'.'.).'.'.'.'.Q.n.] Z = + X         ",
"                & 3 V P 6.D.R.(.(.(.!.!.!.!.(.(.(.Q.H.h.;.! m h 7 5 w F [ b.H.U.E.~.~.~.~.~.~.~.~.E.E.U.G.D.8.( V & O X         ",
"                V Z P ] n.T.).oXoXoX.X.X.X.XoXoXoX{.E.S.t.*.B c g q r z / 4.a.Z.S.L.I.I.I.I.I.I.I.I.F.n.v.1.( Z 6 % O X         ",
"        X + 3 V L _ 6.n.G.Q.'..X.X.X|.|.|.|..X.X.X'.~.L.h.w.*.N c k j b N #.=.t.j.g.V.V.V.V.V.C.V.A.i.7.) L V 6 & # O o         ",
"        X + 3 V ) c.D.T.Q.).|.|.|.|.'.'.'.'.|.|.|.'./.I.A.p.;.#.N m n n O.o.l.;.t.d.f.g.g.g.g.g.g.f.y.>.L V 6 & % # # +         ",
"        X + 3 Z ] n.R.'.'.'.|.|.|.'.'.'.'.'.'.|.|.'./.P.C.f.q.:.#.B X.X.o.+.l.=.t.d.f.g.g.g.g.g.g.f.y.>.L V 6 3 3 2 * &         ",
"        X + 3 Z 1.D.(.oX.X|.|.'.'.'.'.'.'.'.'.'.'.'./.P.C.g.d.r.:.$.k.k.l.z.;.e.p.g.V.V.V.V.V.V.V.A.i.7.) L Z V i p t t         ",
"        X + 3 Z 1.D.(.oX.X|.|.'.'.'.'.|.|.|.'.'.|.'./.P.C.g.d.q.r.;.;.w.t.p.h.Z.S.H.I.I.I.I.I.I.I.I.F.n.v.8.' ` T Y J s t & O X ",
"        X + 3 Z 1.D.(.oX.X|.|.'.'.'.'.|.|.|.'.'.'.(.~.P.V.f.d.s.q.q.s.j.A.S.I.U.E.E.E.~.~.~.~.~.~.E.E.P.G.D.n.b.y.3.E H t & O X ",
"        X + 3 Z 1.D.(.oX.X|.|.'.'.'.'.'.|.'.'.).(./.U.L.V.g.d.d.d.d.f.V.I.U./.(.'.).).).'.'.(.(.'.).'.).).(.E.L.V.u.,.K u & O X ",
"        X + 3 Z 1.D.(.oX.X|.|.'.'.'.'.'.|.'.'.(.~.U.I.K.V.g.d.d.d.f.A.C.P./.'..X|.|.|.|.|.|.|.|.|.|.|..X.X.X).Y.K.f.3.U u & O X ",
"        X + 3 Z 1.D.).OXoX.X|.|.'.|.|.|.|.'.(.~.P.L.C.V.g.f.d.d.d.f.A.C.P./.'.|.|.|.|.|.'.'.'.'.'.|.|.|..X'._.Y.K.f.2.K u & O X ",
"        X + 3 Z ] n.R.'.'.'.'.'.'.'.'.'.'.(.~.P.C.N.f.d.u.u.u.q.d.d.f.C.P./.'.|.|.|.|.|.'.'.'.'.'.'.'.|.|.'./.P.K.f.2.K u & O X ",
"        X + 3 V ) c.D.G.R.E./././././././.E.P.C.i.y.2.,.2.2.2.9.9.q.d.A.I./.'.|.|.'.|.|.|.'.'.'.'.'.'.|.|.'./.P.K.f.2.K u & O X ",
"        X + 3 V L ` 1.v.B.F.P.Y.Y.P.P.P.P.I.C.i.<.E Y K K U Y ^ -.%.r.h.L.~.'..X|.'.|.|.|.'.'.'.'.'.'.|.|.'./.Y.K.f.2.U u & O X ",
"                V C L ) 7.N.C.K.K.K.K.K.K.C.i.3.Y A i u u u d x M ! *.t.S.E.{.oX|.|.|.|.|.|.|.|.'.'.'.|.|.'./.Y.K.f.2.U u & O X ",
"                & 3 y S E 0.u.f.f.f.f.f.f.u.0.E A t * $ & 2 4 r l m k.x.h.H.Q.).).'.'.'.'.'.'.'.'.'.'.'.'.).~.I.C.u.,.K u & O X ",
"                O # * u J E 2.2.2.2.2.2.2.2.E J u * @ O O @ : , h b ..&.e.m.D.G.R.E./././././././././././.~.P.C.i.0.E H t & O X ",
"                . o $ 0 a H K U K K K K U K H a 0 $ O . X O - , 8 v O.Q ^ 5.8.v.B.F.P.P.P.P.P.P.P.P.P.Y.Y.I.C.i.3.E J a t & O X ",
"                        t t u u u u u u u u t t         X O - , 9 v n M x D L ` 7.N.C.K.K.K.K.K.K.K.K.K.K.C.i.3.Y A u 0         ",
"                        & & & & & & & & & & & &         o O - , h v v k r w p S E 3.u.f.f.f.f.f.f.f.f.f.f.u.0.E A t * $         ",
"                        O O O O O O O O O O O O         o O ; , h j v h , 2 2 t H E ,.2.2.2.2.2.2.2.2.2.2.2.E J u * @ o         ",
"                        X X X X X X X X X X X X         X O - , h j j h , : $ * u A K U U U U U K K K K U K H a 0 $ o .         ",
"                                                        o O - , h j j h , ; # $ 3 0 t u u u u u u u u u u u t t                 ",
"                                                        O + ; , h v j h , ; @ + # $ & & & & & & & & & & & & & &                 ",
"                                                        - : > 7 j v v h , ; + O O O O O O O O O O O O O O + + +                 ",
"                                                        > , 7 9 v v v h , ; + o o X X X X X X X X X X o o o o o                 ",
"                                                o + ; > 7 8 h v { { v h , ; + o                                                 ",
"                                                o + ; , 8 j v { } { v h , ; + o                                                 ",
"                                                o + ; , g v { | | { v h , ; + o                                                 ",
"                                                o + ; , h v }  . .} v h , ; + o                                                 ",
"                                                                                                                                ",
"                                                                                                                                ",
"                                                                                                                                ",
"                                                                                                                                ",
"                                                                                                                                ",
"                                                                                                                                ",
"                                                                                                                                ",
"                                                                                                                                "
};
