/* XPM */
static char *grass[] = {
/* columns rows colors chars-per-pixel */
"64 64 29 1 ",
"  c #A9A52B",
". c #A9A72D",
"X c #AAA92E",
"o c #AAAA2F",
"O c #AAAB2F",
"+ c #AAAD31",
"@ c #AAAE32",
"# c #ABB133",
"$ c #ABB233",
"% c #ABB234",
"& c #ABB335",
"* c #ABB435",
"= c #ACB536",
"- c #ACB636",
"; c #ACB736",
": c #ACB637",
"> c #ACB737",
", c #ACB837",
"< c #ACB838",
"1 c #ACB938",
"2 c #ADB938",
"3 c #ACBA38",
"4 c #ADBA39",
"5 c #ADBB39",
"6 c #ADBB3A",
"7 c #ADBC39",
"8 c #ADBC3A",
"9 c #ADBD3A",
"0 c #ADBD3B",
/* pixels */
"8888888888888888888888888888888888888888888888888888888888888888",
"8888888888888888888888888888888888888888888888888888888888888888",
"8888888888888888888888888888888888888888888888888888888888888888",
"8888888888888888888888888888888888888888888888888888888888888888",
"8888888888888888888888888888888888888888888888888888888888888888",
"8888888888888888888888888888888888888888888888888888888888888888",
"8888888888888888888888888888888888888888888888888888888888888888",
"8888888888888888888888888888888888888888888888888888888888888888",
"8888888888888888888888888888888888888888888888888888888888888888",
"8888888888888888888888888888888888888885555555888888888888888888",
"8888888888888888888888888888888888888855555555588888888888888888",
"8888888888888888888888888888888888888555-**-55588888888888888888",
"888888888888888888888888888888888888855-#++#-5888888888888888888",
"88888888888888888888888888888888888885,&+oo+&5588855558888888888",
"88888888888888888888888888888888888885,#o..o&-555555555888888888",
"88888888888888888888888888888888888885-#o  o&-55-**-555888888888",
"88888888888888888888888888888888888885-#o  o#-,-#++#-55888888888",
"88888888888888888888888888888888888885,#o..o&--&+oo+*,5888888888",
"88888888888888888888888888888888888885,&+oo+&--&o..o#,5888888888",
"888888888888888888888888888888888888855-#++#-,-#o  o#-5888888888",
"8888888888888888888888888888888888888555-**-55-#o..o#-5888888888",
"8888888888888888888888888888888888888855555555-&o..o#,5888888888",
"88888888888888888888888888888888888888855588855&+oo+&55888888888",
"88888888888888888888888888888888888888888888885-#++#-55888888888",
"888888888888888888888888888888888888888888888855-**-555888888888",
"8888888888888888888888888888888888888888888888555555555888888888",
"8888888888888888888888888888888888888888888888855555558888888888",
"8888888888888888888888888888888888888888888888888888888888888888",
"8888888888888888888888888888888888888888888888888888888888888888",
"8888888888888888888888888888888888888888888888888888888888888888",
"8888888888888888888888888888888888888888888888888888888888888888",
"8888888888888888888888888888888888888888888888888888888888888888",
"8888888888888888888888888888888888888888888888888888888888888888",
"8888888888888888885555555558888888888888888888888888888888888888",
"8888888888888888855555555558888888888888888888888888888888888888",
"88888888888888888555-**-5558888888888888888888888888888888888888",
"8888888888888888885-#++#-558888888888888888888888888888888888888",
"8888888885555588855&+oo+&558855558888888888888888888888888888888",
"888888888555555555-&o..o&-55555555888888888888888888888888888888",
"888888888555-**-55-&o  o#-55-**-55588888888888888888888888888888",
"88888888855-#++#-,-#o. o&-,-#++#-5588888888888888888888888888888",
"88888888855&+oo+&--&o..o&--*+oo+&5588888888888888888888888888888",
"8888888885,#o..o&--&+oo+*--&o..o#,588888888888888888888888888888",
"8888888885-#o  o#-,-#++#-,-#o .o#-588888888888888888888888888888",
"8888888885-#o..o#-55-**-55-&o  o#-588888888888888888888888888888",
"8888888885,#o..o&-55555555-&o..o#,588888888888888888888888888888",
"8888888885,&+oo+&,588858855&+oo+*,588888888888888888888888888888",
"88888888855-#++#-5588888885-#++#-5588888888888888888888888888888",
"888888888555-**-555888888855-**-55588888888888888888888888888888",
"8888888888555555555588888855555555888888888888888888888888888888",
"8888888888855555558888888885555558888888888888888888888888888888",
"8888888888888888888888888888888888888888888888888888888888888888",
"8888888888888888888888888888888888888888888888888888888888888888",
"8888888888888888888888888888888888888888888888888888888888888888",
"8888888888888888888888888888888888888888888888888888888888888888",
"8888888888888888888888888888888888888888888888888888888888888888",
"8888888888888888888888888888888888888888888888888888888888888888",
"8888888888888888888888888888888888888888888888888888888888888888",
"8888888888888888888888888888888888888888888888888888888888888888",
"8888888888888888888888888888888888888888888888888888888888888888",
"8888888888888888888888888888888888888888888888888888888888888888",
"8888888888888888888888888888888888888888888888888888888888888888",
"8888888888888888888888888888888888888888888888888888888888888888",
"8888888888888888888888888888888888888888888888888888888888888888"
};
