/* XPM */
static char *wall[] = {
/* columns rows colors chars-per-pixel */
"64 64 181 2 ",
"   c None",
".  c #020C11",
"X  c #0A1416",
"o  c #0B1718",
"O  c #0E1819",
"+  c #101719",
"@  c #151C1C",
"#  c #181E1D",
"$  c #23211F",
"%  c #34271F",
"&  c #1E2321",
"*  c #262422",
"=  c #2B2421",
"-  c #2D2F29",
";  c #352A22",
":  c #392B25",
">  c #34362E",
",  c #36382F",
"<  c #3C3B31",
"1  c #432F28",
"2  c #442F26",
"3  c #47312A",
"4  c #4C332A",
"5  c #51352D",
"6  c #5A372A",
"7  c #5D3B30",
"8  c #603725",
"9  c #613827",
"0  c #643C2B",
"q  c #653E32",
"w  c #534E3F",
"e  c #6D4134",
"r  c #604837",
"t  c #754434",
"y  c #784637",
"u  c #7B4738",
"i  c #7F4A3A",
"p  c #544F40",
"a  c #555141",
"s  c #5A5544",
"d  c #5F5947",
"f  c #5F5A48",
"g  c #625C49",
"h  c #635946",
"j  c #746A54",
"k  c #796D54",
"l  c #67604B",
"z  c #88482F",
"x  c #974B2D",
"c  c #984C2E",
"v  c #824A3A",
"b  c #8B4E3C",
"n  c #8F503E",
"m  c #985136",
"M  c #93523F",
"N  c #9B553F",
"B  c #984E31",
"V  c #A2563F",
"C  c #A6583F",
"Z  c #AD5A3E",
"A  c #A85639",
"S  c #B75A36",
"D  c #B45B3E",
"F  c #BC5E3D",
"G  c #BE5B34",
"H  c #BF613E",
"J  c #C25C34",
"K  c #C35F3C",
"L  c #C4603C",
"P  c #CB623C",
"I  c #D4643A",
"U  c #DB663A",
"Y  c #DD693C",
"T  c #D8673B",
"R  c #E16739",
"E  c #E66A3A",
"W  c #E86B3A",
"Q  c #EB703E",
"!  c #E7703F",
"~  c #955340",
"^  c #9A5540",
"/  c #A05640",
"(  c #AC5C40",
")  c #A65940",
"_  c #996043",
"`  c #997254",
"'  c #BA6542",
"]  c #8B7D61",
"[  c #C86C45",
"{  c #DC6D40",
"}  c #DD7648",
"|  c #DD784B",
" . c #C57C54",
".. c #D47B51",
"X. c #E97342",
"o. c #EC7846",
"O. c #E57A4A",
"+. c #E87B4A",
"@. c #9A8160",
"#. c #978769",
"$. c #978869",
"%. c #9C8C6C",
"&. c #AA926B",
"*. c #BF9D6F",
"=. c #A69371",
"-. c #AF9A76",
";. c #B09A75",
":. c #BEA77E",
">. c #BDA87F",
",. c #EC814E",
"<. c #E38556",
"1. c #EB8D5A",
"2. c #E58858",
"3. c #EA905E",
"4. c #DE8E61",
"5. c #C5976B",
"6. c #C29F70",
"7. c #EB9967",
"8. c #EE9D69",
"9. c #E59A69",
"0. c #C7A478",
"q. c #C8AB7E",
"w. c #D9AA71",
"e. c #D9B17C",
"r. c #EDA26E",
"t. c #FDB569",
"y. c #F5B56F",
"u. c #EBAA77",
"i. c #ECAC79",
"p. c #E8AB78",
"a. c #F1AE77",
"s. c #ECB474",
"d. c #EDB27E",
"f. c #E1B57C",
"g. c #FABA73",
"h. c #F7BE7C",
"j. c #F8BD79",
"k. c #F4B676",
"l. c #FBC17E",
"z. c #C2AB82",
"x. c #C8AD82",
"c. c #CAB185",
"v. c #CBB388",
"b. c #D5B98A",
"n. c #DBBF90",
"m. c #EDBB87",
"M. c #E5BF89",
"N. c #EDBE8B",
"B. c #F0BD80",
"V. c #DDC292",
"C. c #EEC187",
"Z. c #ECC48D",
"A. c #F5C283",
"S. c #F9C484",
"D. c #FDC987",
"F. c #F2C68B",
"G. c #F2C88F",
"H. c #FECA89",
"J. c #E3C694",
"K. c #EDC692",
"L. c #E6C997",
"P. c #EECB97",
"I. c #E6CA98",
"U. c #EECE9A",
"Y. c #F1C990",
"T. c #F1CA92",
"R. c #F0CC96",
"E. c #F1CA92",
"W. c #F0CF9A",
"Q. c #F0CE99",
"!. c #FACE91",
"~. c #EED09C",
"^. c #EED19D",
"/. c #F2D09A",
"(. c #F1D19D",
"). c #F3D29D",
"_. c #FAD399",
"`. c #F6D6A0",
"'. c #F4D6A0",
"]. c #F8D7A2",
"[. c #F8D8A2",
/* pixels */
"                                                                                                                                ",
"                                                                                                                                ",
"                                                                                                                                ",
"                                                                                                                                ",
"                                                X X X X X X X X X X X X X X X X                                                 ",
"                                                # # # # # # # # # # # # # # # #                                                 ",
"                                                > > > > > > > > > > > > , > > >                                                 ",
"                                                a s g g g g g g g g g g g g s a                                                 ",
"                                X X X X X @ > p j ] $.%.%.%.%.%.%.%.%.%.%.$.] j p > @ X X X X X                                 ",
"                                # # # @ @ * < h ] ;.q.c.c.c.c.c.c.c.c.c.c.q.;.] h < * @ @ # # @                                 ",
"                                > > > > > < w k &.q.M.Z.Z.Z.Z.Z.Z.Z.Z.Z.Z.M.q.&.k w < > > > > >                                 ",
"                                a s g g h l k @.6.f.A.H.D.D.D.D.D.D.D.D.H.A.f.6.@.k l d g g s a                                 ",
"                        . + - w j ] $.%.%.%.&.6.w.s.g.g.g.g.g.g.g.g.g.g.g.g.s.w.*.&.%.%.%.#.] j w - + .                         ",
"                        + & < d ] -.z.v.v.c.c.e.s.y.t.t.t.t.t.t.t.t.t.t.t.t.y.s.e.e.c.v.v.z.-.] d < & +                         ",
"                        - < p k =.v.V.I.I.I.K.C.h.g.t.t.t.t.t.t.t.t.t.t.t.t.g.k.B.C.Z.K.P.J.v.=.k p < -                         ",
"                        w d k $.:.n.U.].[.)./.G.S.h.g.g.g.g.g.g.g.g.g.g.g.g.g.h.S.S.H.!._.W.n.>.$.k d w                         ",
"                X # > a j ] =.:.b.L.(.`.`.).(.R.G.F.A.A.A.A.A.A.A.A.A.A.A.A.A.h.h.h.l.S.!.R.L.b.>.=.] j a > # X                 ",
"                X # > s ] -.v.n.L.U.(.(.(.(.(.R.T.T.F.F.F.F.F.G.G.T.T.T.T.G.F.A.g.g.g.h.F.T.P.L.V.v.-.] s > # X                 ",
"                X # > g $.z.V.U.(.(.W.W.~.~.U.R.T.T.F.F.F.F.T.T.E.P.U.U.U.R.F.A.g.t.t.g.A.T.W.(.~.J.z.$.g > # X                 ",
"                X # , g %.v.I.].`.(.W.U.~.U.U.T.F.F.A.A.A.A.F.F.T.U.U.~.~.U.T.A.g.t.t.g.A.T.(.`.[.I.v.%.g , # X                 ",
"                X # > g %.v.I.`.`.(.~.U.~.U.R.F.A.h.g.g.g.g.h.A.F.R.U.~.~.U.T.A.g.t.t.g.A.T.(.`.`.I.v.%.g , # X                 ",
"                X # > g %.v.I.`.).(.~.U.U.R.T.A.h.g.t.t.t.t.g.h.F.T.U.~.~.U.T.A.g.t.t.g.A.T.(.).`.I.v.%.g > # X                 ",
"                X # > g %.v.L.).).(.W.U.R.T.F.A.h.g.t.t.t.t.g.h.F.T.U.~.~.U.T.A.g.t.t.g.A.T.(.).`.I.v.%.g > # X                 ",
"                X # > g %.v.L.).).(.W.T.F.A.A.h.h.g.g.g.g.g.h.A.F.R.U.~.~.U.T.A.g.t.t.g.A.T.(.).`.I.v.%.g > # X                 ",
"                X # > g %.v.L.).).(.R.F.A.h.h.h.h.A.A.A.A.A.F.F.T.U.U.~.~.U.T.A.g.t.t.g.A.T.(.).`.I.v.%.g > # X                 ",
"                X # > g %.v.I.`.).(.T.A.h.g.g.h.l.A.F.F.F.F.T.T.E.P.U.U.U.R.F.A.g.t.t.g.A.T.(.).`.I.v.%.g > @ X                 ",
"                X # > g %.v.I.`.).(.T.A.h.g.g.h.l.A.F.G.F.F.F.G.G.T.T.T.T.F.F.A.g.g.g.h.A.T.(.).`.I.v.%.g > @ X                 ",
"                X # > g %.v.I.`.).(.R.F.A.h.h.h.h.A.A.A.A.A.A.A.A.A.A.A.A.A.A.h.h.h.h.A.F.R.(.).`.I.v.%.g > # X                 ",
"                X # > g %.v.I.`.).(.W.T.F.A.A.h.h.g.g.g.g.g.g.g.g.g.g.g.g.g.g.h.h.A.A.F.T.W.(.`.`.I.v.%.g > # X                 ",
"                X # > g $.x.L.).).(.W.U.R.T.F.A.h.g.t.t.t.t.t.t.t.t.t.t.t.t.g.h.A.F.T.R.U.W.(.(.).L.x.$.g > # X                 ",
"                X # > h @.0.M.R.(.(.~.U.U.P.T.A.h.g.t.t.t.t.t.t.t.t.t.t.t.t.g.h.A.T.P.U.U.~.(.W.R.M.0.@.h > # X                 ",
"                X # > r ` 5.p.A.T.W.~.~.~.U.R.F.A.h.g.g.g.g.g.g.g.g.g.g.g.g.h.A.F.R.U.~.~.~.W.T.A.p.5.` r > # o                 ",
"                o # ; r _  .9.a.A.T.U.~.~.U.U.T.F.A.A.A.A.A.A.A.A.A.A.A.A.A.A.F.T.U.U.~.~.~.R.A.a.9. ._ r ; # o                 ",
"                o # ; 0 m [ <.8.d.A.P.U.U.U.U.W.R.T.T.T.T.T.T.T.T.T.T.T.T.T.T.R.U.U.U.~.U.P.F.d.8.<.[ m 0 ; # o                 ",
"                o # ; 9 c L } 1.r.d.N.K.U.U.U.U.U.U.U.U.U.U.U.U.U.U.U.U.U.U.U.U.U.U.U.U.P.Z.d.r.1.O.L c 9 ; # o                 ",
"                o # % 8 x J { ,.3.r.i.m.K.U.U.~.~.~.~.~.~.~.~.~.~.~.~.~.~.~.~.~.~.U.P.K.m.i.r.3.,.{ J x 8 % # o                 ",
"                o # % 8 x J R o.,.1.7.u.m.K.U.~.~.~.~.~.~.~.~.~.~.~.~.~.~.~.~.~.~.U.K.m.u.7.1.,.o.E J x 8 % # o                 ",
"                o # % 6 x G Y Q X.+.1.7.i.N.K.U.P.P.P.P.P.P.P.P.P.P.P.P.P.P.P.P.U.P.N.i.7.2.+.X.Q Y J x 8 % # o                 ",
"                o # % 6 z S I R E X.+.1.r.d.m.Z.N.N.N.N.N.N.N.N.N.N.N.N.N.N.N.N.Z.m.d.9.2.| { R E U J x 8 % # o                 ",
"                o @ = 5 z A K I U E X.+.3.8.u.i.i.i.i.u.u.u.u.u.u.u.u.u.u.i.i.i.i.u.9.4...[ I I R U J c 8 % # o                 ",
"                o @ = 3 t m D P I R W X.,.1.1.3.3.3.3.3.3.3.3.3.3.3.3.3.3.3.3.3.3.3.<...[ ' H P U I J c 8 % @ X                 ",
"                @ # = 3 e b A F I U E W X.o.+.+.+.+.+.+.+.+.+.+.+.+.+.+.+.+.+.+.+.O.} [ ' ( D F P P G c 9 : # @                 ",
"                $ = : 5 e b V D P U E W W W W W W W W W W W W W W W E E Y Y Y Y { T P L ( ) ) D L L S B 0 2 = $                 ",
"                : 1 4 q y b N D P U R W E E E E E E E E E E E E E E R U I P P P P K F D C V / ) D F Z m t 6 1 :                 ",
"O O O o o @ $ : 4 7 e y v M V D P U E W E E E E E E E E E E E E E R U I L F D D D D Z C V N ^ / C Z C m v e 7 4 : $ @ o o O O O ",
"@ @ @ @ @ # = 1 7 t i b b M V D P U E W E E E E E E E E E E E E E R U P F Z C V V V V N N N ^ ^ / V N M b v t 7 1 = # @ @ @ @ @ ",
"= * * * * = : 5 e v n M ~ N V D P U E W E E E E E E E E E E E W W E U P D C N N N N ^ ^ N ~ ~ ~ ^ ^ ~ ~ ~ n v e 5 : = * * * = = ",
"1 1 1 1 1 3 5 q u b ~ ^ ~ ^ V D P U E W E E E E E E E E E E W W W E U P D V ^ ~ ~ ~ ~ ~ ~ ~ ~ ~ ~ ~ ~ ~ ^ ~ b u q 5 3 1 1 1 1 1 ",
"q q q q q q e u v M ~ ~ ~ ^ V D P U E W E E E E E E E E E E W W W E U P D / ^ ~ ~ ~ ~ ~ ~ ~ ~ ~ ~ ~ ~ ~ ^ ^ M v y e q q q q q q ",
"v v v v v v v b n M ~ ~ ~ ^ C D P U E W E E E E E E E E E E E E E R U P D / ^ ~ ~ ~ ~ ~ ~ ~ ~ ~ ~ ~ ~ ~ ^ ~ M n b v v v v v v v ",
"M M M M M M M ~ ~ ~ ^ ^ ^ C Z F I U E W W E E E E E E E W E E R R U I L Z V ^ ~ ~ ~ ~ ~ ~ ~ ~ ~ ~ ~ ~ ~ ~ ~ ~ ~ M M M M M M M M ",
"^ ^ ^ ^ ^ ^ ^ ^ ~ ~ ^ / C D F P I U E W W W E E E E E W W E R U I P L D C ^ ~ ~ ~ ~ ~ ~ ~ ~ ~ ~ ~ ~ ~ ~ ~ ~ ~ ~ ^ ^ ^ ^ ^ ^ ^ ^ ",
"                        K L P I U R E E W W W W W W W W W E R I P F D C / ^ ~ ~ ~ ~ ~ ~ ~ ~ ~ ~ ~ ~ ~ ~ ~ ~ ~ ~                 ",
"                        I I U R R R E E E E E E E E E E E R U P F Z V ^ ^ ^ ~ ~ ~ ~ ~ ~ ~ ~ ~ ~ ~ ~ ~ ~ ~ ~ ~ ~                 ",
"                        R R E E E E R R U U U U U U U U U I P L D C ^ ~ ~ ~ ~ ~ ~ ~ ~ ~ ~ ~ ~ ~ ~ ~ ~ ~ ~ ~ ~ ~                 ",
"                        W W W W W E R U I P P P P P P P P L K F Z V ^ ~ ~ ~ ~ ~ ~ ~ ~ ~ ~ ~ ~ ~ ~ ~ ~ ~ ~ ~ ~ ~                 ",
"                W W W W W W W W W E R I P F D D D D D D D D Z Z                         ~ ~ ~ ~ ~ ~ ~ ~                         ",
"                W E E E E E E E E R U P F Z C V V V V V V V V V                         ~ ~ ~ ~ ~ ~ ~ ~                         ",
"                E E E R U U U U U I P L D C ^ ^ ^ ^ ^ ^ ^ ^ ^ ^                         ~ ~ ~ ~ ~ ~ ~ ~                         ",
"                E E R U I P P P P L L F Z V ^ ~ ~ ~ ~ ~ ~ ~ ~ ~                         ~ ~ ~ ~ ~ ~ ~ ~                         ",
"        E E E E E E U I P F D D D D Z Z                                                         ~ ~ ~ ~                         ",
"        E E E E E E U P F Z C V V V V V                                                         ~ ~ ~ ~                         ",
"        E E E E W E U P D C ^ ^ ^ ^ ^ ^                                                         ~ ~ ~ ~                         ",
"        E E E E W E U P D V ^ ~ ~ ~ ~ ~                                                         ~ ~ ~ ~                         "
};
